<svg version="1.1" id="Layer_1" xmlns="http://www.w3.org/2000/svg" x="0" y="0" width="150" height="74" xml:space="preserve"><style>.st0,.st1{fill-rule:evenodd;clip-rule:evenodd}.st1{fill:#fff}</style><path class="st0" d="M134.9 20.5c-.9-.9-2-1.3-3.3-1.3h-2.4H1.7c-.9 0-1.7.7-1.7 1.7v30.7c0 .9.7 1.7 1.7 1.7h131.8c1.2 0 2.4-.5 3.3-1.3l11.6-11.6c2.2-2.1 2.2-4.3 0-6.4l-13.5-13.5z"/><path class="st1" d="M68.2 43.9l-3.7-3.7c-1.8-1.8-1.8-4.8 0-6.6l2-1.9 1.4-1.4h4.4l-1.4 1.4-3.5 3.5c-1 1-1 2.6 0 3.5l5.3 5.2h-4.5zM59.1 43.9h3.2V24h-3.2v19.9zM57.5 33.9c-.3-.2-.9-.3-1.6-.3-2.9 0-2.9 3.5-2.9 5.4v4.9h-3.5V30.7h3.1v3c.2-1.2 1.6-3.3 3.7-3.3.3 0 .7 0 1.1.1v3.4zM40.9 44.7c-4.5 0-7.1-3.1-7.1-7.1 0-4.5 3.1-7.3 7.1-7.3 4.1 0 7.2 2.7 7.2 7.3-.1 4-2.7 7.1-7.2 7.1z"/><path class="st0" d="M40.9 33.2c2.4 0 3.6 2 3.6 4.1 0 2.3-.7 4.7-3.6 4.7-2.8 0-3.6-2.5-3.6-4.7 0-2.1 1.2-4.1 3.6-4.1z"/><path class="st1" d="M25.1 43.9l-3.3-14.7-3.2 14.7h-4.7L9.1 25.6h3.8l3.4 14.7 3.1-14.7h4.9l3.2 14.7h.1L31 25.6h3.5l-4.7 18.3h-4.7z"/><path d="M74.4 34.1l31-31c1-1 1.5-1.3 2.1-1.5s1.2-.2 1.8 0c.6.2 1.1.4 2.1 1.5l30.8 30.7c1 1 1.3 1.5 1.5 2.1.2.6.2 1.2 0 1.8-.2.6-.4 1.1-1.5 2.1l-31 31c-1 1-1.5 1.3-2.1 1.5-.6.2-1.2.2-1.8 0-.6-.2-1.1-.4-2.1-1.5L74.4 40.1c-1-1-1.3-1.5-1.5-2.1-.2-.6-.2-1.2 0-1.8.2-.6.5-1 1.5-2.1z" fill-rule="evenodd" clip-rule="evenodd" fill="#fdb813"/><path class="st0" d="M89.7 30.4c0-2.1 1.7-2.6 3-2.6s2.6.3 3.8.8l.3-3.1c-1.4-.5-2.9-.7-4.5-.7-3.3 0-6.5 1.6-6.5 5.8 0 6.3 8.2 4.8 8.2 8.4 0 1.7-1.9 2.4-3.3 2.4-1.5 0-2.9-.5-4.2-1.2l-.5 3.4c1.8.4 2.8.7 4.8.7 3.8 0 7-1.6 7-5.7.1-6.3-8.1-5-8.1-8.2zM107.2 40.5c-.6.8-1.4 1.2-2.5 1.2-1.3 0-2.3-.5-2.3-1.7 0-2.1 2.4-2.4 4-2.4h1.6c0 1.1-.2 2.1-.8 2.9zm4.1.4c0-1-.1-2.1-.1-3.5v-1.8c0-4.1-1.7-5.9-5.9-5.9-1.5 0-3.4.4-4.8 1.1l.1 3.1c1.2-.9 2.7-1.5 4.3-1.5 2.1 0 3.1.8 3.1 3h-2c-1.5 0-3.3.1-4.6.8-1.4.7-2.4 1.9-2.4 4 0 2.7 2.4 4.2 4.8 4.2 1.6 0 3.4-.9 4.3-2.4h.1c0 .4 0 1.4.2 2.1h3.2c-.2-1.1-.3-2.1-.3-3.2zM121.2 30h-3.1v-1.7c0-1.1.4-2.2 1.6-2.2.8 0 1.2.3 1.5.5l.3-3c-.7-.2-1.7-.3-2.6-.3-2.8 0-4.4 2-4.4 4.8v2h-2.7v2.7h2.7V44h3.6V32.7h3.1V30zM124.8 35.7c.2-1.9 1.2-3.3 3.2-3.3s2.8 1.5 2.9 3.3h-6.1zm3-6c-4.3 0-6.4 3.3-6.4 7.4 0 4.6 2.7 7.3 7.2 7.3 1.9 0 3.4-.4 4.7-1.1v-3c-1.3.8-2.8 1.4-4.6 1.4-2.2 0-3.8-1.3-3.9-3.5h9.5c0-4.9-1.4-8.5-6.5-8.5zM95.7 51.8l-1-3.1h-.8l1.3 3.9h.9l1.3-3.9h-.8l-.9 3.1zM98.6 52.7h.8v-3.9h-.8v3.9zM102.8 52.1c-.8 0-1.3-.6-1.3-1.4 0-.8.5-1.4 1.3-1.4.3 0 .5 0 .8.2v-.7c-.3-.1-.6-.2-.9-.2-1.3 0-2.1.7-2.1 2.1 0 1.3.9 1.9 2.1 1.9.3 0 .6-.1.9-.1v-.7c-.2.3-.5.3-.8.3zM104.5 49.4h1.1v3.3h.8v-3.3h1.1v-.6h-3v.6zM117.2 52.7h.8v-3.9h-.8v3.9zM110.2 52.1c-.8 0-1.1-.7-1.1-1.4s.3-1.4 1.1-1.4 1.1.7 1.1 1.4-.3 1.4-1.1 1.4zm0-3.4c-1.2 0-1.9.8-1.9 2s.7 2 1.9 2 1.9-.9 1.9-2c0-1.2-.7-2-1.9-2zM114.2 50.3h-.2v-.9h.2c.4 0 .8 0 .8.4 0 .5-.4.5-.8.5zm.9.4c.4-.1.7-.5.7-.9 0-1.1-1-1.1-1.9-1.1h-.9v3.8h.9V51h.2c.3 0 .4.1.5.4l.4 1.2h.9l-.6-1.5c.1-.2-.2-.3-.2-.4zM120.4 51.2l.6-1.6.6 1.6h-1.2zm.2-2.4l-1.5 3.8h.8l.3-.9h1.6l.3.9h.9l-1.5-3.8h-.9z"/></svg>