<svg width="900" height="150" viewBox="0 0 900 150" fill="none" xmlns="http://www.w3.org/2000/svg">
<g clip-path="url(#clip0_601_23363)">
<path d="M281.6 112.4H331.3C355.9 112.4 368.1 102.3 368.1 82C368.1 71.2 362.7 62.7 353.7 58.9V58.6C360.4 55 364.4 47.9 364.4 39.4C364.4 23.9 352 13 335 13H281.6V112.4ZM300 53.6V29.1H331.7C340.9 29.1 346.1 33.4 346.1 41.2C346.1 49.4 341.3 53.6 331.7 53.6H300ZM300 96V68.2H332.7C344.2 68.2 349.8 72.7 349.8 82C349.8 91.3 344.5 96 332.5 96H300ZM379.5 80.8C379.5 101.8 392.3 114.5 413.2 114.5C424.4 114.5 433.4 110.9 439.7 104.6H440V112.4H457V37.1H439.4V78C439.4 90.1 430.4 98.6 417.8 98.6C405.1 98.6 397.2 91.1 397.2 78V37.1H379.6V80.8H379.5V80.8ZM472.6 112.4H490.2V37.1H472.6V112.4ZM471.9 24.3H490.7V6.3H471.9V24.3ZM506.1 112.4H523.7V8.7H506.1V112.4ZM536.9 74.7C536.9 98 553.8 114.5 577.6 114.5C588.8 114.5 598.1 110.8 603.9 104.4H604.2V112.4H620.8V8.7H603.2V44.2H602.9C596.8 38.4 587.5 35 576.9 35C553.9 35 536.9 52.2 536.9 74.7ZM603.2 79.6C603.2 90.3 592.5 99.1 579.3 99.1C564.4 99.1 554.5 89.6 554.5 74.8C554.5 60 564.3 50.5 579.1 50.5C592.2 50.5 603.1 59 603.1 69.7V79.6H603.2V79.6ZM636.4 112.4H654V90.8L668.4 78.6H668.7L696.2 112.4H718.1L680.8 67.7L716.5 37.2H691.3L654.3 69.4H654V8.7H636.4V112.4ZM727.8 112.4H745.4V37.1H727.8V112.4ZM727.1 24.3H745.9V6.3H727.1V24.3ZM814.2 52.2V37.1H789.9V18.9H772.3V37.1H754.9V52.2H772.3V90.7C772.3 105.9 779.3 112.4 796.5 112.4H811V96.2H797.9C791.6 96.2 789.9 94.8 789.9 89.8V52.2H814.2V52.2ZM819.2 75C819.2 98.9 835.3 114.5 860.7 114.5C876.2 114.5 888.3 108.8 897 97.6L885.2 87.1C878.2 95.8 870.7 99.9 860.6 99.9C846.8 99.9 837.3 92.2 836.7 80.4H900V75.1C900 52.2 883.9 34.9 859.7 34.9C835.5 35 819.2 51.6 819.2 75V75ZM837 67.6C838.1 56.9 847.4 49.6 860.1 49.6C872.8 49.6 881.7 57 882.7 67.6H837V67.6Z" fill="white"/>
<path d="M0 0V74.8L74.7 112.2V37.4L0 0ZM149.5 0V74.8L224.2 37.4L149.5 0Z" fill="#30F2A2"/>
<path d="M149.5 74.7V149.5L224.2 112.1V37.4L149.5 74.7V74.7ZM74.7 37.4V112.2L149.4 74.8V0L74.7 37.4Z" fill="#14CC80"/>
</g>
<defs>
<clipPath id="clip0_601_23363">
<rect width="900" height="150" fill="white"/>
</clipPath>
</defs>
</svg>
