<svg width="123" height="45" viewBox="0 0 123 45" fill="none" xmlns="http://www.w3.org/2000/svg">
<g clip-path="url(#clip0_601_23517)">
<path d="M107.5 -9.68948e-06C99 -0.10001 92.2 6.69999 92.1 15.2C92 23.6 98.8 30.5 107.3 30.6C115.7 30.7 122.6 23.9 122.7 15.5V15.4C122.7 6.89999 115.9 -9.68948e-06 107.5 -9.68948e-06ZM106.7 21.6H103.6L100.2 15V21.6H97.6V10.6H100.9L104.1 17.1V10.6H106.7V21.6ZM117.4 13L111.8 19.2H117.3V21.7H108.2V19.4L113.9 13.1H108.4V10.7H117.4V13V13Z" fill="#EC6608"/>
<path d="M87.2 40C87.2 40.2 87.1 40.3 86.9 40.3H85.9C84.8 40.3 84.2 40.8 84.2 41.8C84.2 42.8 84.8 43.3 85.9 43.3C86.4 43.3 86.9 43.1 87.3 42.7V43.2H88.3V40C88.3 39 87.6 38.3 86.3 38.3C85.6 38.3 84.9 38.5 84.4 39L84.9 39.8C85.3 39.5 85.7 39.3 86.2 39.3C86.7 39.2 87.1 39.5 87.2 40ZM86 42.5C85.4 42.5 85.2 42.2 85.2 41.8C85.2 41.4 85.5 41.1 86 41.1H86.6C86.8 41.1 86.9 41.1 87.1 41V41.4C87.1 42 86.7 42.4 86.2 42.5C86.2 42.5 86.2 42.5 86.1 42.5H86ZM82.5 40.8C82.5 41.6 81.8 42.2 81 42.2C80.2 42.2 79.6 41.5 79.6 40.7C79.6 39.9 80.3 39.3 81.1 39.3C81.9 39.3 82.5 39.9 82.5 40.7C82.5 40.6 82.5 40.7 82.5 40.8ZM78.5 40.8C78.5 42.2 79.6 43.3 81 43.4C82.4 43.4 83.5 42.3 83.6 40.9C83.6 39.5 82.5 38.4 81.1 38.3C79.8 38.3 78.6 39.3 78.6 40.7C78.5 40.6 78.5 40.7 78.5 40.8ZM78.1 38.3H77.7C77.1 38.3 76.6 38.6 76.4 39.2V38.4H75.4V43.2H76.4V40.8C76.4 39.7 76.8 39.3 77.5 39.3H78L78.1 38.3ZM73.2 40C73.2 40.2 73.1 40.3 72.9 40.3H71.9C70.8 40.3 70.2 40.8 70.2 41.8C70.2 42.8 70.8 43.3 71.9 43.3C72.4 43.3 72.9 43.1 73.3 42.7V43.2H74.3V40C74.3 39 73.6 38.3 72.3 38.3C71.6 38.3 70.9 38.5 70.4 39L70.9 39.8C71.3 39.5 71.7 39.3 72.2 39.3C72.8 39.2 73.2 39.5 73.2 40ZM72.1 42.5C71.5 42.5 71.3 42.2 71.3 41.8C71.3 41.4 71.6 41.1 72.1 41.1H72.7C72.9 41.1 73 41.1 73.2 41V41.4C73.2 42 72.8 42.4 72.3 42.5C72.3 42.5 72.3 42.5 72.2 42.5H72.1ZM67.3 39.2C68 39.2 68.5 39.7 68.5 40.4H66C66.1 39.7 66.6 39.2 67.3 39.2ZM69.7 41.1C69.7 39.1 68.5 38.3 67.3 38.3C66 38.3 64.9 39.3 64.9 40.6C64.9 40.7 64.9 40.7 64.9 40.8C64.9 42.2 66 43.3 67.4 43.3C68.4 43.3 69.2 42.7 69.6 41.9H68.4C68.1 42.3 67.7 42.5 67.3 42.4C66.6 42.4 66 41.8 66 41.1H69.7ZM62.2 36.5V38.4H61.4V39.3H62.2V42.2C62.2 43.1 62.9 43.2 63.5 43.2C63.9 43.2 64.4 43.2 64.4 43.2V42.3C64.2 42.3 64 42.3 63.8 42.3C63.6 42.3 63.3 42.2 63.3 41.9V39.3H64.4V38.4H63.3V36.5H62.2ZM60 40.8C60 41.6 59.3 42.2 58.5 42.2C57.7 42.2 57.1 41.5 57.1 40.7C57.1 39.9 57.8 39.3 58.6 39.3C59.3 39.3 60 39.9 60 40.8C60 40.7 60 40.7 60 40.8ZM56 40.8C56 42.2 57.1 43.3 58.5 43.4C59.9 43.4 61 42.3 61.1 40.9C61.1 39.5 60 38.4 58.6 38.3C57.2 38.3 56.1 39.3 56.1 40.7C56 40.6 56 40.7 56 40.8ZM53.5 39.9H51.6L52.6 36.9L53.5 39.9ZM53.2 35.7H51.8L49.4 43.1H50.6L51.3 40.8H53.7L54.5 43.1H55.7L53.2 35.7ZM46 40C46 40.2 45.9 40.3 45.7 40.3H44.7C43.6 40.3 43 40.8 43 41.8C43 42.8 43.6 43.3 44.7 43.3C45.2 43.3 45.7 43.1 46 42.7V43.2H47V40C47 39 46.3 38.3 45 38.3C44.3 38.3 43.6 38.5 43.1 38.9L43.6 39.7C44 39.4 44.5 39.2 45 39.2C45.6 39.2 46 39.4 46 40ZM44.9 42.5C44.3 42.5 44.1 42.2 44.1 41.8C44.1 41.4 44.4 41.1 44.9 41.1H45.5C45.7 41.1 45.8 41.1 46 41V41.4C46 42 45.6 42.4 45.1 42.5C45.1 42.5 45.1 42.5 45 42.5H44.9ZM38.1 40.8C38.1 40 38.8 39.4 39.6 39.4C40.4 39.4 41 40.1 41 40.9C41 41.7 40.3 42.3 39.5 42.3C38.7 42.3 38.1 41.7 38.1 40.9V40.8ZM41 38.4V39.1C40.6 38.6 40 38.2 39.4 38.3C38 38.3 36.9 39.4 36.9 40.8C36.9 42.2 38 43.3 39.4 43.3C40 43.3 40.6 43 41 42.5V43.7C41 44.1 40.7 44.2 40.4 44.2H38.6V45H40.6C41.3 45 42 44.5 42 43.7C42 43.6 42 43.6 42 43.5V38.3L41 38.4ZM32.9 38.4H31.9V43.2H32.9V39.9C33.2 39.5 33.7 39.2 34.2 39.2C34.7 39.2 35.1 39.5 35.2 40C35.2 40.1 35.2 40.1 35.2 40.2V43.2H36.2V40C36.3 39.1 35.6 38.3 34.7 38.2H34.4C33.8 38.2 33.2 38.5 32.8 39L32.9 38.4ZM29.6 40C29.6 40.2 29.5 40.3 29.3 40.3H28.3C27.2 40.3 26.6 40.8 26.6 41.8C26.6 42.8 27.2 43.3 28.3 43.3C28.8 43.3 29.3 43.1 29.7 42.7V43.2H30.7V40C30.7 39 30 38.3 28.7 38.3C28 38.3 27.3 38.5 26.8 39L27.3 39.8C27.7 39.5 28.1 39.3 28.6 39.3C29.2 39.2 29.6 39.5 29.6 40ZM28.5 42.5C27.9 42.5 27.7 42.2 27.7 41.8C27.7 41.4 28 41.1 28.5 41.1H29.1C29.3 41.1 29.4 41.1 29.6 41V41.4C29.6 42 29.2 42.4 28.7 42.5C28.7 42.5 28.7 42.5 28.6 42.5H28.5ZM26.2 38.3H25.8C25.2 38.3 24.7 38.6 24.5 39.1V38.3H23.5V43.1H24.5V40.7C24.5 39.6 24.9 39.2 25.6 39.2H26.1L26.2 38.3ZM20.2 43.3C21.3 43.4 22.2 42.7 22.3 41.6C22.3 41.5 22.3 41.5 22.3 41.4V38.4H21.3V41.3C21.4 41.8 21 42.3 20.4 42.4H20.2C19.7 42.5 19.2 42.1 19.1 41.5C19.1 41.4 19.1 41.4 19.1 41.3V38.4H18V41.4C18 42.5 18.9 43.3 20 43.3C20.1 43.3 20.2 43.3 20.2 43.3ZM15.9 40C15.9 40.2 15.8 40.3 15.6 40.3H14.6C13.5 40.3 12.9 40.8 12.9 41.8C12.9 42.8 13.5 43.3 14.6 43.3C15.1 43.3 15.6 43.1 16 42.7V43.2H17V40C17 39 16.3 38.3 15 38.3C14.3 38.3 13.6 38.5 13.1 39L13.6 39.8C14 39.5 14.4 39.3 14.9 39.3C15.5 39.2 15.9 39.5 15.9 40ZM14.8 42.5C14.2 42.5 14 42.2 14 41.8C14 41.4 14.3 41.1 14.8 41.1H15.4C15.6 41.1 15.7 41.1 15.9 41V41.4C15.9 42 15.5 42.4 15 42.5C15 42.5 15 42.5 14.9 42.5H14.8ZM10.2 36.4V38.3H9.4V39.2H10.2V42.1C10.2 43 10.9 43.1 11.5 43.1C11.9 43.1 12.4 43.1 12.4 43.1V42.2C12.2 42.2 12 42.2 11.8 42.2C11.6 42.2 11.3 42.1 11.3 41.8V39.2H12.4V38.3H11.3V36.4H10.2ZM7.8 40C7.8 40.2 7.7 40.3 7.5 40.3H6.5C5.4 40.3 4.8 40.8 4.8 41.8C4.8 42.8 5.4 43.3 6.5 43.3C7 43.3 7.5 43.1 7.9 42.7V43.2H8.9V40C8.9 39 8.2 38.3 6.9 38.3C6.2 38.3 5.5 38.5 5 38.9L5.5 39.7C5.9 39.4 6.3 39.2 6.8 39.2C7.3 39.2 7.7 39.5 7.8 40ZM6.6 42.5C6 42.5 5.8 42.2 5.8 41.8C5.8 41.4 6.1 41.1 6.6 41.1H7.2C7.4 41.1 7.5 41.1 7.7 41V41.4C7.7 42 7.3 42.4 6.8 42.5C6.8 42.5 6.8 42.5 6.7 42.5H6.6ZM0 35.7V36.7H2.2V43.1H3.3V36.6H5.5V35.6L0 35.7ZM87.9 13.2C85.8 11.3 83 10.3 80.1 10.3C75.5 10.3 72.6 13.2 72.6 16.3C72.6 18.9 73.9 21 77.1 22L80.4 23C82 23.5 82.6 23.9 82.6 24.9C82.6 25.7 81.8 26.3 80.5 26.3C78.4 26.1 76.4 25.3 74.8 23.9L71.9 27.7C74.3 29.8 77.3 30.8 80.4 30.7C85.7 30.7 88.1 27.4 88.1 24.5C88.1 21.9 86.8 19.8 82.8 18.5L79.6 17.5C78.6 17.1 78.2 16.7 78.2 16C78.2 15.3 78.7 14.7 80.1 14.7C81.9 14.7 83.6 15.5 84.9 16.7L87.9 13.2ZM60 3.4V10.8H57V15.5H60V26.1C60 30 62.8 30.5 65.6 30.5C67.2 30.5 69.8 30.2 69.8 30.2V25.5C69.8 25.5 68.7 25.6 67.3 25.6C66.5 25.6 65.5 25.4 65.5 24.2V15.4H69.7V10.8H65.5V3.4H60ZM25 3.4V10.8H22V15.5H25V26.1C25 30 27.8 30.5 30.6 30.5C32.2 30.5 34.8 30.2 34.8 30.2V25.5C34.8 25.5 33.7 25.6 32.3 25.6C31.4 25.6 30.5 25.4 30.5 24.2V15.4H34.7V10.8H30.5V3.4H25ZM21 4.2C18.2 1.7 14.7 0 11.3 0C6.1 0 1.5 3.2 1.5 8.4C1.5 12.1 4 14.8 7.9 16.7L10 17.7C12.8 19 14.6 20.2 14.6 22.2C14.6 24 13 25.4 10.5 25.4C7.7 25.2 5.2 23.9 3.3 21.9L0.1 26.3C2.9 29.2 6.7 30.8 10.7 30.8C17.2 30.8 20.9 26.5 20.9 22C20.9 17.5 18 15 13.4 12.9L10.9 11.8C8.5 10.7 7.7 9.6 7.7 8.3C7.7 6.5 9.5 5.5 11.4 5.5C13.3 5.5 15.8 6.8 17.6 8.6L21 4.2ZM48.8 21.9V23.3C48.8 25.7 47 26.7 45.1 26.7C43.4 26.7 42.4 25.7 42.4 24.4C42.4 23.1 43.4 22.3 45.1 22.3H47.2C47.7 22.4 48.3 22.2 48.8 21.9ZM56.9 30.5V25.9C56.9 25.9 57 25.9 55.7 25.9C54.9 25.9 54.2 25.7 54.2 24.5V17.5C54.2 12.4 50.2 10.3 45.8 10.3C42.9 10.4 40 11.2 37.5 12.7L39.6 16.8C41.4 15.7 43.4 15.1 45.4 15C47.5 15 48.6 15.9 48.6 17.3V17.5C48.6 18.2 48.2 18.6 47.3 18.6H43.5C39.2 18.6 36.5 20.9 36.5 24.6C36.5 27.8 39.2 30.7 43.2 30.7C45.4 30.7 47.6 29.9 48.6 28.4L48.8 28C49.5 30.4 51.8 30.7 54.1 30.7C55.2 30.8 56 30.7 56.9 30.5Z" fill="white"/>
</g>
<defs>
<clipPath id="clip0_601_23517">
<rect width="122.6" height="45" fill="white"/>
</clipPath>
</defs>
</svg>
