<?xml version="1.0" encoding="utf-8"?>
<!-- Generator: Adobe Illustrator 16.0.0, SVG Export Plug-In . SVG Version: 6.00 Build 0)  -->
<!DOCTYPE svg PUBLIC "-//W3C//DTD SVG 1.1//EN" "http://www.w3.org/Graphics/SVG/1.1/DTD/svg11.dtd">
<svg version="1.1" id="Layer_1" xmlns="http://www.w3.org/2000/svg" xmlns:xlink="http://www.w3.org/1999/xlink" x="0px" y="0px"
	 width="193px" height="20px" viewBox="0 0 193 20" enable-background="new 0 0 193 20" xml:space="preserve">
<path fill="#151B4D" d="M35.422,19.725h12.382v-3.328h-8.778V11.63h8.282V8.4h-8.282v-4.61h8.778V0.462H35.422V19.725z
	 M57.656,11.715l-2.75-0.411c-1.323-0.194-1.68-0.659-1.68-1.404c0-0.908,0.66-1.404,1.982-1.404c1.707,0,2.366,0.412,2.56,2.118
	l3.083-0.744C60.41,7.476,58.761,5.963,55.1,5.963c-3.386,0-5.392,1.513-5.392,4.1c0,2.312,1.458,3.662,3.825,4.045l2.257,0.356
	c1.594,0.249,1.982,0.66,1.982,1.486c0,0.908-0.854,1.377-2.2,1.377c-1.707,0-2.642-0.469-2.862-2.23l-3.274,0.908
	c0.357,2.203,2.448,3.99,5.916,3.99c3.716,0,5.916-1.652,5.916-4.43C61.26,13.367,59.886,12.018,57.656,11.715z M66.594,2.224
	h-3.495v13.319c0,2.506,1.652,4.182,4.154,4.182h2.89v-3.084h-3.549V9.322H70.5V6.238h-3.906V2.224z M72.788,19.725h3.495V6.242
	h-3.495V19.725z M96.437,5.966c-2.339,0-3.991,1.156-4.845,3.468c-0.551-2.312-2.091-3.468-4.569-3.468
	c-2.42,0-3.797,1.237-4.457,3.413V6.242h-3.495v13.483h3.495v-6.439c0-2.777,1.21-4.154,3.166-4.154
	c1.679,0,2.614,0.908,2.614,2.723v7.87h3.495v-5.834c0-3.301,1.101-4.759,3.165-4.759c1.679,0,2.614,0.989,2.614,2.808v7.789h3.494
	v-8.007C101.113,7.891,99.544,5.966,96.437,5.966z M113.802,9.268c-0.853-2.118-2.532-3.301-4.844-3.301
	c-3.771,0-5.974,2.808-5.974,7.043c0,4.182,2.285,6.99,6.137,6.99c2.23,0,3.852-1.156,4.678-3.219v2.943h3.495V6.242h-3.495v3.026
	H113.802z M110.168,16.835c-2.475,0-3.662-1.237-3.662-3.825c0-2.641,1.184-3.878,3.662-3.878c2.561,0,3.743,1.238,3.743,3.878
	C113.911,15.598,112.729,16.835,110.168,16.835z M123.32,2.224h-3.494v13.319c0,2.506,1.652,4.182,4.154,4.182h2.891v-3.084h-3.551
	V9.322h3.908V6.238h-3.908V2.224z M134.988,5.966c-3.99,0-6.768,2.863-6.768,7.098c0,4.182,2.75,6.936,6.881,6.936
	c3.025,0,5.147-1.184,6.055-3.521l-3.026-1.102c-0.659,1.431-1.349,1.9-2.944,1.9c-2.117,0-3.109-0.936-3.328-3.193h9.578
	c0.026-0.551,0.026-0.853,0.026-1.291C141.455,8.635,138.841,5.966,134.988,5.966z M131.852,11.688
	c0.248-2.172,1.211-3.083,3.164-3.083c1.982,0,2.918,0.799,2.973,3.083H131.852z M153.105,0.187c-5.449,0-9.906,3.991-9.906,9.907
	c0,5.861,4.457,9.906,9.906,9.906c5.478,0,9.935-4.045,9.935-9.906C163.04,4.175,158.583,0.187,153.105,0.187z M153.105,16.695
	c-4.072,0-6.135-2.258-6.135-6.632c0-4.348,2.063-6.579,6.135-6.579c4.101,0,6.164,2.23,6.164,6.579
	C159.27,14.441,157.206,16.695,153.105,16.695z M172.916,5.966c-2.42,0-3.797,1.237-4.457,3.413V6.242h-3.495v13.483h3.495v-6.439
	c0-2.777,1.211-4.154,3.165-4.154c1.681,0,2.614,0.908,2.614,2.723v7.87h3.496V11.66C177.734,7.863,176.109,5.966,172.916,5.966z
	 M192.74,12.789c0-4.154-2.614-6.823-6.467-6.823c-3.99,0-6.769,2.863-6.769,7.098c0,4.182,2.75,6.936,6.882,6.936
	c3.025,0,5.146-1.184,6.055-3.521l-3.026-1.102c-0.659,1.431-1.351,1.9-2.944,1.9c-2.117,0-3.111-0.936-3.328-3.193h9.578
	C192.74,13.53,192.74,13.229,192.74,12.789z M183.137,11.688c0.247-2.172,1.209-3.083,3.164-3.083c1.982,0,2.917,0.799,2.971,3.083
	H183.137z M74.536,0c-1.452,0-2.23,0.751-2.23,2.094c0,1.397,0.806,2.176,2.23,2.176s2.23-0.779,2.23-2.176
	C76.766,0.751,75.96,0,74.536,0z"/>
<path fill="#151B4D" d="M10.688,0.462v3.328h19.243V0.462H10.688z M0,19.725h19.242v-3.328H0V19.725z M5.344,11.674h19.243V8.346
	H5.344V11.674z"/>
</svg>
