<svg width="58" height="24" viewBox="0 0 58 24" fill="none" xmlns="http://www.w3.org/2000/svg">
<g clip-path="url(#clip0_601_23520)">
<path d="M57.8782 0.285889C57.0602 0.623413 56.5162 2.74585 56.5162 2.74585L51.4772 20.3408C50.8934 22.5486 49.0768 23.7161 47.0159 23.7161H35.957C36.7511 23.5691 37.6208 21.2343 37.6208 21.2343L43.2435 3.71673C44.0377 1.04433 45.3878 0.287874 47.4447 0.287874L57.8782 0.285889Z" fill="#D5002B"/>
<path d="M0.497009 0.285889C1.31501 0.623413 1.85902 2.74585 1.85902 2.74585L6.89807 20.3408C7.48179 22.5486 9.29847 23.7161 11.3594 23.7161H22.4242C21.63 23.5691 20.7604 21.2343 20.7604 21.2343L15.1376 3.71474C14.3435 1.04234 12.9934 0.285889 10.9365 0.285889H0.497009Z" fill="#D5002B"/>
<path d="M35.2641 0.355347H22.9781V23.6426H35.2641V0.355347Z" fill="#D5002B"/>
</g>
<defs>
<clipPath id="clip0_601_23520">
<rect width="58" height="24" fill="white"/>
</clipPath>
</defs>
</svg>
