<svg width="193" height="20" viewBox="0 0 193 20" fill="none" xmlns="http://www.w3.org/2000/svg">
<path d="M35.4219 19.7246H47.8036V16.3964H39.0256V11.6301H47.3073V8.40048H39.0256V3.79058H47.8036V0.462349H35.4219V19.7246ZM57.656 11.7151L54.9056 11.3038C53.5831 11.11 53.2262 10.6442 53.2262 9.89971C53.2262 8.99201 53.8857 8.49566 55.2082 8.49566C56.9148 8.49566 57.5744 8.90702 57.7682 10.6136L60.8517 9.86911C60.4097 7.47578 58.7609 5.96294 55.0994 5.96294C51.7133 5.96294 49.7075 7.47578 49.7075 10.0629C49.7075 12.3746 51.1659 13.7243 53.5321 14.1084L55.7895 14.4654C57.384 14.7136 57.7716 15.1249 57.7716 15.951C57.7716 16.8587 56.9182 17.3279 55.5719 17.3279C53.8653 17.3279 52.9304 16.8587 52.7094 15.0977L49.4355 16.0054C49.7924 18.2084 51.8833 19.9966 55.351 19.9966C59.0669 19.9966 61.2665 18.3444 61.2665 15.5669C61.2597 13.3673 59.8862 12.0177 57.656 11.7151ZM66.5938 2.22336H63.0989V15.5431C63.0989 18.0486 64.7512 19.7246 67.2534 19.7246H70.1431V16.6412H66.5938V9.32177H70.5001V6.23831H66.5938V2.22336ZM72.7881 19.7246H76.283V6.24171H72.7881V19.7246ZM96.4365 5.96634C94.0975 5.96634 92.4452 7.12222 91.5919 9.43396C91.0411 7.12222 89.501 5.96634 87.0227 5.96634C84.6021 5.96634 83.2252 7.20381 82.5656 9.37957V6.24171H79.0707V19.7246H82.5656V13.2857C82.5656 10.5082 83.7759 9.1314 85.7308 9.1314C87.4102 9.1314 88.3451 10.0391 88.3451 11.8545V19.7246H91.8401V13.8909C91.8401 10.5898 92.9416 9.1314 95.0052 9.1314C96.6846 9.1314 97.6196 10.1207 97.6196 11.9395V19.728H101.114V11.7219C101.114 7.89053 99.5438 5.96634 96.4365 5.96634ZM113.802 9.26738C112.949 7.14941 111.269 5.96634 108.958 5.96634C105.187 5.96634 102.984 8.77443 102.984 13.0104C102.984 17.1919 105.269 20 109.121 20C111.351 20 112.973 18.8441 113.799 16.7806V19.7246H117.294V6.24171H113.799V9.26738H113.802ZM110.168 16.8349C107.693 16.8349 106.506 15.5975 106.506 13.0104C106.506 10.3689 107.689 9.1314 110.168 9.1314C112.728 9.1314 113.911 10.3689 113.911 13.0104C113.911 15.5975 112.728 16.8349 110.168 16.8349ZM123.321 2.22336H119.826V15.5431C119.826 18.0486 121.479 19.7246 123.981 19.7246H126.871V16.6412H123.321V9.32177H127.228V6.23831H123.321V2.22336ZM134.989 5.96634C130.998 5.96634 128.22 8.82883 128.22 13.0648C128.22 17.2463 130.971 20 135.101 20C138.127 20 140.249 18.8169 141.156 16.478L138.13 15.3765C137.471 16.8077 136.781 17.2769 135.186 17.2769C133.068 17.2769 132.076 16.342 131.858 14.0846H141.435C141.462 13.5339 141.462 13.2313 141.462 12.7928C141.455 8.63505 138.841 5.96634 134.989 5.96634ZM131.851 11.6879C132.099 9.51555 133.062 8.60445 135.016 8.60445C136.998 8.60445 137.933 9.40336 137.988 11.6879H131.851ZM153.106 0.186978C147.656 0.186978 143.199 4.17814 143.199 10.0935C143.199 15.9544 147.656 20 153.106 20C158.583 20 163.04 15.9544 163.04 10.0935C163.04 4.17474 158.583 0.186978 153.106 0.186978ZM153.106 16.6956C149.033 16.6956 146.97 14.4382 146.97 10.0629C146.97 5.71477 149.033 3.48462 153.106 3.48462C157.206 3.48462 159.27 5.71477 159.27 10.0629C159.27 14.4416 157.206 16.6956 153.106 16.6956ZM172.916 5.96634C170.496 5.96634 169.119 7.20381 168.459 9.37957V6.24171H164.964V19.7246H168.459V13.2857C168.459 10.5082 169.67 9.1314 171.624 9.1314C173.304 9.1314 174.239 10.0391 174.239 11.8545V19.7246H177.734V11.6607C177.734 7.86333 176.109 5.96634 172.916 5.96634ZM192.74 12.7894C192.74 8.63505 190.126 5.96634 186.274 5.96634C182.283 5.96634 179.505 8.82883 179.505 13.0648C179.505 17.2463 182.255 20 186.386 20C189.412 20 191.533 18.8169 192.441 16.478L189.415 15.3765C188.756 16.8077 188.065 17.2769 186.471 17.2769C184.353 17.2769 183.36 16.342 183.143 14.0846H192.72C192.74 13.5305 192.74 13.2279 192.74 12.7894ZM183.136 11.6879C183.384 9.51555 184.346 8.60445 186.301 8.60445C188.283 8.60445 189.218 9.40336 189.272 11.6879H183.136ZM74.5355 0C73.0839 0 72.3053 0.751316 72.3053 2.09417C72.3053 3.49141 73.1111 4.26993 74.5355 4.26993C75.96 4.26993 76.7657 3.49141 76.7657 2.09417C76.7657 0.751316 75.96 0 74.5355 0Z" fill="white"/>
<path d="M10.6887 0.462402V3.79063H29.931V0.462402H10.6887ZM0 19.7247H19.2424V16.3964H0V19.7247ZM5.34434 11.6744H24.5867V8.34613H5.34434V11.6744Z" fill="white"/>
</svg>
